<svg width="14" height="14" viewBox="0 0 14 14" fill="none" xmlns="http://www.w3.org/2000/svg">
<path fill-rule="evenodd" clip-rule="evenodd" d="M7 14C8.85652 14 10.637 13.2625 11.9497 11.9497C13.2625 10.637 14 8.85652 14 7C14 5.14348 13.2625 3.36301 11.9497 2.05025C10.637 0.737498 8.85652 0 7 0C5.14348 0 3.36301 0.737498 2.05025 2.05025C0.737498 3.36301 0 5.14348 0 7C0 8.85652 0.737498 10.637 2.05025 11.9497C3.36301 13.2625 5.14348 14 7 14ZM9.78 9.78C9.63937 9.92045 9.44875 9.99934 9.25 9.99934C9.05125 9.99934 8.86063 9.92045 8.72 9.78L7 8.06L5.28 9.78C5.21134 9.85369 5.12854 9.91279 5.03654 9.95378C4.94454 9.99477 4.84523 10.0168 4.74452 10.0186C4.64382 10.0204 4.54379 10.0018 4.4504 9.96412C4.35701 9.9264 4.27218 9.87026 4.20096 9.79904C4.12974 9.72782 4.0736 9.64299 4.03588 9.5496C3.99816 9.45621 3.97963 9.35618 3.98141 9.25548C3.98319 9.15477 4.00523 9.05546 4.04622 8.96346C4.08721 8.87146 4.14631 8.78866 4.22 8.72L5.94 7L4.22 5.28C4.08752 5.13783 4.0154 4.94978 4.01883 4.75548C4.02225 4.56118 4.10097 4.37579 4.23838 4.23838C4.37579 4.10097 4.56118 4.02225 4.75548 4.01883C4.94978 4.0154 5.13783 4.08752 5.28 4.22L7 5.94L8.72 4.22C8.78866 4.14631 8.87146 4.08721 8.96346 4.04622C9.05546 4.00523 9.15477 3.98319 9.25548 3.98141C9.35618 3.97963 9.45621 3.99816 9.5496 4.03588C9.64299 4.0736 9.72782 4.12974 9.79904 4.20096C9.87026 4.27218 9.9264 4.35701 9.96412 4.4504C10.0018 4.54379 10.0204 4.64382 10.0186 4.74452C10.0168 4.84523 9.99477 4.94454 9.95378 5.03654C9.91279 5.12854 9.85369 5.21134 9.78 5.28L8.06 7L9.78 8.72C9.92045 8.86063 9.99934 9.05125 9.99934 9.25C9.99934 9.44875 9.92045 9.63937 9.78 9.78Z" fill="#D65A5C"/>
</svg>
